<svg width="20" height="20" viewBox="0 0 20 20" fill="none" xmlns="http://www.w3.org/2000/svg"><g clip-path="url(#clip0_2616_261)"><mask id="mask0_2616_261" style="mask-type:luminance" maskUnits="userSpaceOnUse" x="0" y="2" width="20" height="16"><path d="M18.571 2.857H1.43C.639 2.857 0 3.497 0 4.286v11.428c0 .79.64 1.429 1.429 1.429H18.57c.79 0 1.429-.64 1.429-1.429V4.286c0-.79-.64-1.429-1.429-1.429Z" fill="white"/></mask><g mask="url(#mask0_2616_261)"><path d="M20 2.857H0v14.286h20V2.857Z" fill="url(#paint0_linear_2616_261)"/><path d="M20 2.857H9.524v14.286H20V2.857Z" fill="url(#paint1_linear_2616_261)"/><path d="M6.667 2.857H0v14.286h6.667V2.857Z" fill="url(#paint2_linear_2616_261)"/><path d="M13.333 2.857H6.667v14.286h6.666V2.857Z" fill="url(#paint3_linear_2616_261)"/></g></g><defs><linearGradient id="paint0_linear_2616_261" x1="10" y1="2.857" x2="10" y2="17.143" gradientUnits="userSpaceOnUse"><stop stop-color="white"/><stop offset="1" stop-color="#F0F0F0"/></linearGradient><linearGradient id="paint1_linear_2616_261" x1="14.762" y1="2.857" x2="14.762" y2="17.143" gradientUnits="userSpaceOnUse"><stop stop-color="#F44653"/><stop offset="1" stop-color="#EE2A39"/></linearGradient><linearGradient id="paint2_linear_2616_261" x1="3.333" y1="2.857" x2="3.333" y2="17.143" gradientUnits="userSpaceOnUse"><stop stop-color="#1035BB"/><stop offset="1" stop-color="#042396"/></linearGradient><linearGradient id="paint3_linear_2616_261" x1="10" y1="2.857" x2="10" y2="17.143" gradientUnits="userSpaceOnUse"><stop stop-color="white"/><stop offset="1" stop-color="#F0F0F0"/></linearGradient><clipPath id="clip0_2616_261"><path fill="white" d="M0 0h20v20H0z"/></clipPath></defs></svg>