<svg width="20" height="20" fill="none" xmlns="http://www.w3.org/2000/svg"><g clip-path="url(#a)"><mask id="b" style="mask-type:luminance" maskUnits="userSpaceOnUse" x="0" y="2" width="20" height="16"><path d="M18.571 2.857H1.43C.639 2.857 0 3.497 0 4.286v11.428c0 .79.64 1.429 1.429 1.429H18.57c.79 0 1.429-.64 1.429-1.429V4.286c0-.79-.64-1.429-1.429-1.429Z" fill="#fff"/></mask><g mask="url(#b)"><path d="M18.571 3.036H1.428c-.69 0-1.25.56-1.25 1.25v11.428c0 .69.56 1.25 1.25 1.25h17.143c.69 0 1.25-.56 1.25-1.25V4.286c0-.69-.56-1.25-1.25-1.25Z" fill="#fff" stroke="#F5F5F5" stroke-width="14.286"/><mask id="c" style="mask-type:alpha" maskUnits="userSpaceOnUse" x="-7" y="-5" width="34" height="30"><path d="M18.571 3.036H1.428c-.69 0-1.25.56-1.25 1.25v11.428c0 .69.56 1.25 1.25 1.25h17.143c.69 0 1.25-.56 1.25-1.25V4.286c0-.69-.56-1.25-1.25-1.25Z" fill="#fff" stroke="#fff" stroke-width="14.286"/></mask><g mask="url(#c)"><path fill-rule="evenodd" clip-rule="evenodd" d="M0 8.571h8.571V2.857H0v5.714ZM11.428 17.143H20v-5.715h-8.572v5.715Z" fill="#083D7A"/><path fill-rule="evenodd" clip-rule="evenodd" d="M0 17.143h8.571v-5.715H0v5.715ZM11.428 8.571H20V2.857h-8.572v5.714Z" fill="#DF1E35"/><mask id="d" style="mask-type:luminance" maskUnits="userSpaceOnUse" x="8" y="8" width="4" height="4"><path fill-rule="evenodd" clip-rule="evenodd" d="M8.99 8.99a1.429 1.429 0 1 0 2.02 0" fill="#fff"/></mask><g mask="url(#d)"><path d="M8.653 8.653a1.905 1.905 0 0 0 0 2.694l.674-.674a.952.952 0 0 1 0-1.346l-.674-.674Zm0 2.694c.744.744 1.95.744 2.694 0l-.673-.674a.953.953 0 0 1-1.347 0l-.674.674Zm2.694 0a1.905 1.905 0 0 0 0-2.694l-.673.674a.952.952 0 0 1 0 1.346l.673.674Z" fill="#0F6D1A"/></g><path fill-rule="evenodd" clip-rule="evenodd" d="M10 10.476a.476.476 0 1 0 0-.952.476.476 0 0 0 0 .952Z" fill="#042F60"/></g></g></g><defs><clipPath id="a"><path fill="#fff" d="M0 0h20v20H0z"/></clipPath></defs></svg>