<svg width="20" height="20" fill="none" xmlns="http://www.w3.org/2000/svg"><g clip-path="url(#a)"><mask id="b" style="mask-type:luminance" maskUnits="userSpaceOnUse" x="0" y="2" width="20" height="16"><path d="M18.571 2.857H1.43C.639 2.857 0 3.497 0 4.286v11.428c0 .79.64 1.429 1.429 1.429H18.57c.79 0 1.429-.64 1.429-1.429V4.286c0-.79-.64-1.429-1.429-1.429Z" fill="#fff"/></mask><g mask="url(#b)"><path d="M18.571 3.036H1.428c-.69 0-1.25.56-1.25 1.25v11.428c0 .69.56 1.25 1.25 1.25h17.143c.69 0 1.25-.56 1.25-1.25V4.286c0-.69-.56-1.25-1.25-1.25Z" fill="#fff" stroke="#F5F5F5" stroke-width="14.286"/><mask id="c" style="mask-type:alpha" maskUnits="userSpaceOnUse" x="-7" y="-5" width="34" height="30"><path d="M18.571 3.036H1.428c-.69 0-1.25.56-1.25 1.25v11.428c0 .69.56 1.25 1.25 1.25h17.143c.69 0 1.25-.56 1.25-1.25V4.286c0-.69-.56-1.25-1.25-1.25Z" fill="#fff" stroke="#fff" stroke-width="14.286"/></mask><g mask="url(#c)"><path d="M20 2.857h-6.667v14.286H20V2.857Z" fill="#E43D4C"/><path fill-rule="evenodd" clip-rule="evenodd" d="M0 17.143h6.667V2.857H0v14.286Z" fill="#1BB65D"/></g></g></g><defs><clipPath id="a"><path fill="#fff" d="M0 0h20v20H0z"/></clipPath></defs></svg>