<svg width="20" height="20" fill="none" xmlns="http://www.w3.org/2000/svg"><g clip-path="url(#a)"><mask id="b" style="mask-type:luminance" maskUnits="userSpaceOnUse" x="0" y="2" width="20" height="16"><path d="M18.571 2.857H1.43C.639 2.857 0 3.497 0 4.286v11.428c0 .79.64 1.429 1.429 1.429H18.57c.79 0 1.429-.64 1.429-1.429V4.286c0-.79-.64-1.429-1.429-1.429Z" fill="#fff"/></mask><g mask="url(#b)"><path d="M18.571 2.857H1.43C.639 2.857 0 3.497 0 4.286v11.428c0 .79.64 1.429 1.429 1.429H18.57c.79 0 1.429-.64 1.429-1.429V4.286c0-.79-.64-1.429-1.429-1.429Z" fill="#fff"/><mask id="c" style="mask-type:alpha" maskUnits="userSpaceOnUse" x="0" y="2" width="20" height="16"><path d="M18.571 2.857H1.43C.639 2.857 0 3.497 0 4.286v11.428c0 .79.64 1.429 1.429 1.429H18.57c.79 0 1.429-.64 1.429-1.429V4.286c0-.79-.64-1.429-1.429-1.429Z" fill="#fff"/></mask><g mask="url(#c)"><path fill-rule="evenodd" clip-rule="evenodd" d="M20 2.857H9.524v.952H20v-.952Zm0 1.905H9.524v.952H20v-.952ZM9.524 6.667H20v.952H9.524v-.952ZM20 8.57H9.524v.953H20V8.57ZM0 10.476h20v.952H0v-.952Zm20 1.905H0v.952h20v-.952ZM0 14.286h20v.952H0v-.952Zm20 1.905H0v.952h20v-.953Z" fill="#E1244A"/><path d="M11.429 2.857H0v7.62h11.429v-7.62Z" fill="#0C3F8E"/><path fill-rule="evenodd" clip-rule="evenodd" d="M4.762 9.524c.675 0 1.295-.234 1.784-.626a2.38 2.38 0 1 1 0-4.463 2.857 2.857 0 1 0-1.784 5.089Zm2.03-1.141.827-.935.827.935-.216-1.23 1.246-.063-1.096-.597.728-1.014-1.15.484-.339-1.201-.339 1.201-1.15-.484.728 1.014-1.096.597 1.246.064-.215 1.229Z" fill="#FFD34F"/></g></g></g><defs><clipPath id="a"><path fill="#fff" d="M0 0h20v20H0z"/></clipPath></defs></svg>