<svg width="20" height="20" viewBox="0 0 20 20" fill="none" xmlns="http://www.w3.org/2000/svg"><g clip-path="url(#clip0_2616_315)"><mask id="mask0_2616_315" style="mask-type:luminance" maskUnits="userSpaceOnUse" x="0" y="2" width="20" height="16"><path d="M18.571 2.857H1.43C.639 2.857 0 3.497 0 4.286v11.428c0 .79.64 1.429 1.429 1.429H18.57c.79 0 1.429-.64 1.429-1.429V4.286c0-.79-.64-1.429-1.429-1.429Z" fill="white"/></mask><g mask="url(#mask0_2616_315)"><path d="M18.571 3.036H1.428c-.69 0-1.25.56-1.25 1.25v11.428c0 .69.56 1.25 1.25 1.25h17.143c.69 0 1.25-.56 1.25-1.25V4.286c0-.69-.56-1.25-1.25-1.25Z" fill="white" stroke="#F5F5F5" stroke-width="14.286"/><mask id="mask1_2616_315" style="mask-type:alpha" maskUnits="userSpaceOnUse" x="-7" y="-5" width="34" height="30"><path d="M18.571 3.036H1.428c-.69 0-1.25.56-1.25 1.25v11.428c0 .69.56 1.25 1.25 1.25h17.143c.69 0 1.25-.56 1.25-1.25V4.286c0-.69-.56-1.25-1.25-1.25Z" fill="white" stroke="white" stroke-width="14.286"/></mask><g mask="url(#mask1_2616_315)"><path fill-rule="evenodd" clip-rule="evenodd" d="M10 14.286a4.286 4.286 0 1 0 0-8.572 4.286 4.286 0 0 0 0 8.572Z" fill="url(#paint0_linear_2616_315)"/></g></g></g><defs><linearGradient id="paint0_linear_2616_315" x1="5.714" y1="5.714" x2="5.714" y2="14.286" gradientUnits="userSpaceOnUse"><stop stop-color="#D81441"/><stop offset="1" stop-color="#BB0831"/></linearGradient><clipPath id="clip0_2616_315"><path fill="white" d="M0 0h20v20H0z"/></clipPath></defs></svg>