<svg width="20" height="20" fill="none" xmlns="http://www.w3.org/2000/svg"><g clip-path="url(#a)"><mask id="b" style="mask-type:luminance" maskUnits="userSpaceOnUse" x="0" y="2" width="20" height="16"><path d="M18.571 2.857H1.43C.639 2.857 0 3.497 0 4.286v11.428c0 .79.64 1.429 1.429 1.429H18.57c.79 0 1.429-.64 1.429-1.429V4.286c0-.79-.64-1.429-1.429-1.429Z" fill="#fff"/></mask><g mask="url(#b)"><path d="M18.571 2.857H1.43C.639 2.857 0 3.497 0 4.286v11.428c0 .79.64 1.429 1.429 1.429H18.57c.79 0 1.429-.64 1.429-1.429V4.286c0-.79-.64-1.429-1.429-1.429Z" fill="#fff"/><mask id="c" style="mask-type:alpha" maskUnits="userSpaceOnUse" x="0" y="2" width="20" height="16"><path d="M18.571 2.857H1.43C.639 2.857 0 3.497 0 4.286v11.428c0 .79.64 1.429 1.429 1.429H18.57c.79 0 1.429-.64 1.429-1.429V4.286c0-.79-.64-1.429-1.429-1.429Z" fill="#fff"/></mask><g mask="url(#c)"><path d="M20 2.857H0v14.286h20V2.857Z" fill="#E92434"/><path fill-rule="evenodd" clip-rule="evenodd" d="m13.586 10.549-.875 1.06.06-1.373-1.28-.504 1.326-.368.084-1.373.76 1.147 1.33-.344-.855 1.076.738 1.16-1.288-.481Z" fill="#fff"/><path fill-rule="evenodd" clip-rule="evenodd" d="M12.43 12.631a4.286 4.286 0 1 1 0-5.263 3.721 3.721 0 0 0-2.192-.701c-1.973 0-3.572 1.492-3.572 3.333 0 1.84 1.6 3.333 3.572 3.333.826 0 1.587-.262 2.193-.702Z" fill="#fff"/></g></g></g><defs><clipPath id="a"><path fill="#fff" d="M0 0h20v20H0z"/></clipPath></defs></svg>