<svg width="20" height="20" fill="none" xmlns="http://www.w3.org/2000/svg"><g clip-path="url(#a)"><mask id="b" style="mask-type:luminance" maskUnits="userSpaceOnUse" x="0" y="2" width="20" height="16"><path d="M18.571 2.857H1.43C.639 2.857 0 3.497 0 4.286v11.428c0 .79.64 1.429 1.429 1.429H18.57c.79 0 1.429-.64 1.429-1.429V4.286c0-.79-.64-1.429-1.429-1.429Z" fill="#fff"/></mask><g mask="url(#b)"><path d="M18.571 3.036H1.428c-.69 0-1.25.56-1.25 1.25v11.428c0 .69.56 1.25 1.25 1.25h17.143c.69 0 1.25-.56 1.25-1.25V4.286c0-.69-.56-1.25-1.25-1.25Z" fill="#fff" stroke="#F5F5F5" stroke-width="14.286"/><mask id="c" style="mask-type:alpha" maskUnits="userSpaceOnUse" x="-7" y="-5" width="34" height="30"><path d="M18.571 3.036H1.428c-.69 0-1.25.56-1.25 1.25v11.428c0 .69.56 1.25 1.25 1.25h17.143c.69 0 1.25-.56 1.25-1.25V4.286c0-.69-.56-1.25-1.25-1.25Z" fill="#fff" stroke="#fff" stroke-width="14.286"/></mask><g mask="url(#c)" fill-rule="evenodd" clip-rule="evenodd"><path d="M0 5.714h20V2.857H0v2.857ZM0 11.429h20V8.57H0v2.858ZM0 17.143h20v-2.857H0v2.857Z" fill="#0B389F"/><path d="M0 2.857 9.524 10 0 17.143V2.857Z" fill="#E12A43"/><path d="m3.333 10.73-1.12.811.426-1.315-1.117-.815 1.382-.002.43-1.314.429 1.314 1.382.002-1.117.815.425 1.315-1.12-.81Z" fill="#fff"/></g></g></g><defs><clipPath id="a"><path fill="#fff" d="M0 0h20v20H0z"/></clipPath></defs></svg>